<svg id="Layer_1" data-name="Layer 1" xmlns="http://www.w3.org/2000/svg" viewBox="0 0 408.5 224.33"><title>Liberty Mutual Insurance logo - Brandlogos.net</title><path d="M324.06,352.68c.47.64-.6,1.7-.6,1.7l-15.63,17.32a122.92,122.92,0,0,1,1.84,43.41c-13.05-.27-38,4.31-59.23,24.12-10.48,10-17.32,22.48-18.65,24.05a9.9,9.9,0,0,1-5.13-2.3c6.28-11.9,15.45-20.62,21.22-25.53C257,427.66,262.47,425,272.17,420a73,73,0,0,0-25.49,11.17q-4.54,3.3-8.77,7a54.73,54.73,0,0,0-5.26,5.71,147,147,0,0,0-10.12,14.6,13.1,13.1,0,0,1-2.8-2.21c-12.83-13.5-19.54-34.43-19.54-57.9,0-13.12,1.86-25.33,5.66-35.87-.16-4.43-.29-8.41-.33-8.85a15.59,15.59,0,0,1-3.53.15,7.05,7.05,0,0,1-3.93-1.35,9.06,9.06,0,0,1-2.13-2.1,9.37,9.37,0,0,1-1.2-2.5,3.78,3.78,0,0,1-2.78-3.69,5.57,5.57,0,0,1,1-3.54,26.65,26.65,0,0,1-.84-5.49c-1.51,0-3.24-2.17-3.84-3.67a3.41,3.41,0,0,1,.6-3.61,2.58,2.58,0,0,1-2.49-1.31,3.18,3.18,0,0,1,.38-3.32c-3.4-1.33-7.46-6.08-6.95-13.08.31-4.14,3-9.27,3.24-10.31a4.75,4.75,0,0,0-.16-3.1,2.8,2.8,0,0,1,3.71.31,24.26,24.26,0,0,1,3.4-3.32,14.09,14.09,0,0,1-2.33-9.45c.73-6.42,6.75-10.78,14-10.78,5.11,0,5.33.84,9,1s6-1.5,6.66-2.66a5.67,5.67,0,0,1,3,6,7.74,7.74,0,0,0,5-.77,10.31,10.31,0,0,0,4.22-4.36,8.12,8.12,0,0,1,4.55,7.74,10.21,10.21,0,0,1-7.06,10c-3.51,1.35-7.79,2.41-8.33,4.65-.33,1.46.11,1.39.36,1.81a13.15,13.15,0,0,1,2.71-.22,2.49,2.49,0,0,1,2.29,2.21,3.42,3.42,0,0,0-1.07,2.19c-.09,1.35,1.27,3.36,2,5.53a13.34,13.34,0,0,1,.31,8.63,20.86,20.86,0,0,1-4.51,8c.33,1.42,2.11,6.13,4.35,11.9l1.15-.88a46.34,46.34,0,0,1,7.64-4.31,52,52,0,0,1,21.67-4.36,60.57,60.57,0,0,1,7.33.46L265,314.69s.22-1.22,1.09-1.22,1.15,1.28,1.15,1.28l3.4,12.9a45.92,45.92,0,0,1,21.65,13.16l10.88-8.89s1.13-1.08,1.84-.66-.07,2-.07,2l-6,16.33a66.84,66.84,0,0,1,5,9.82l18.52-6.86s1.15-.49,1.62.13Zm31.24,18.56c0,3.94,1.64,5.16,7.55,5.16s8.61-1.79,12.48-9.74h1.4l-1.4,12.43h-36.7V377.7c5.51-1.39,6.06-2.61,6.06-7.77V339.36c0-4.25-1-5.49-6.06-6.73v-1.37h22.73v1.39c-4.75,1.22-6.08,2.21-6.08,6.37v32.24Zm36.85,1.24c0,3.1,1.55,4.82,5,5.22v1.39H377.69V377.7c4.17-.82,5.17-2,5.17-5.89V355.38c0-3.76-1.07-4.85-5.59-5.75v-1.37l13.48-1.15h1.4v25.38Zm-4.6-44.58a5.35,5.35,0,0,1,2,10.28,5.36,5.36,0,0,1-2,.43,5.47,5.47,0,0,1-5.42-5.42,5.38,5.38,0,0,1,5.42-5.31Zm24.8,27V373c0,3.52,1.22,5.16,4.91,5.16,6.88,0,11.5-4.09,11.5-14.16,0-7.52-3.69-12.77-9.19-12.77-2.46,0-4.11.82-7.22,3.67Zm0-27v24.78c3.69-3.85,7.46-5.64,11.9-5.64C432.62,347,439,354,439,363c0,9.51-5.73,17.35-20.85,17.35a76.67,76.67,0,0,1-15.1-1.22V334.78c0-2.61-1.82-4.09-4.68-4.58v-1.39l12.57-.88h1.4Zm40.3,31.15H466.1c-.31-5.73-3.11-9.82-6.88-9.82s-6.33,3.94-6.57,9.82Zm23.47,1.88H452.65c-.49,10.16,5.24,15.38,11,15.38,4.53,0,8.15-2.21,11.1-6.7h1.38a17.55,17.55,0,0,1-16.56,10.71c-9.7,0-16.92-7-16.92-16.44a16.74,16.74,0,0,1,13.88-16.59,16.79,16.79,0,0,1,3.35-.24c8.79,0,15.1,5.4,16.25,13.89ZM505.84,359c-2.71-2.63-4.84-4-7-4-2.8,0-4.53,1.15-6.88,4.43V372c0,3.67.71,4.8,5.22,5.71v1.39H477.51V377.7c4.11-1,5.17-2.21,5.17-5.73V355.69c0-3.92-1.71-5.71-5.66-6v-1.39L490.57,347H492v9.8h.18c3-6.7,6.39-9.8,10.26-9.8a7.17,7.17,0,0,1,5.48,2.61l-2,9.34Zm52.28-10.71H571v1.39c-3.93,1.06-4.93,2.21-7.46,7.92L547.93,393.1c-3.26,7.52-6.79,10.24-13.21,10.24a14.8,14.8,0,0,1-2.62-.18l1.89-9.32a11.17,11.17,0,0,0,4.2.73c5.73,0,9-4.09,12.79-14.25l-11.32-23.81c-2-4.16-3.29-5.8-7.81-5.8h-8.3v17.74c0,5,1.33,7.94,5.68,7.94,1.62,0,3-.73,4.51-2.43l1,.89c-2.29,3.83-5.33,5.47-9.92,5.47-5.84,0-10.5-2.77-10.5-9.8v-19.8h-5.59v-1.55c3.86-2.37,8.95-7.3,13.32-12.83h1.55v11.93H551v1.39c-3.55.49-3.55,2.28-1.64,6.2l6.57,13.5,4.26-9.87c2.8-6.55,1.89-9-2-9.82v-1.39ZM399.27,434.63c.56,4.16,2.62,6.55,7.3,7.43v1.39H382.82v-1.39c5.28-1.31,6.17-4.34,5.28-10.55l-4-27.32H384l-15.61,39.25h-1.73l-15.43-39.25h-.16l-4.2,28.14c-.82,5.58.24,9.34,5.66,9.74v1.39H335.16v-1.39c5.15-.22,7.37-3.19,8.53-10.55l4.75-31.24a10.19,10.19,0,0,0-7-3.3V395.6h17.32l12.57,31.57,12.72-31.57h16.25V397c-4.91.91-6.06,3.36-5.42,7.79l4.37,29.87Zm11.06-15.31c0-3.43-1.15-4.65-4.84-5.31V412.6l12.72-1.22h1.4v22.74c0,3.69,2.38,5.4,5.77,5.4,3.11,0,5-1.31,7.68-5.55V418.59c0-2.54-1.64-4-4.84-4.58V412.6l12.72-1.22h1.4v24.56c0,4.07.84,5.07,4.93,6.13v1.39l-14.21,1.22v-7.52h-.16c-3.44,5.24-7.33,7.52-12.32,7.52-6.39,0-10.26-3.5-10.26-9.4v-16Zm44.09-4.25h-5.59v-1.55c3.86-2.39,8.95-7.3,13.32-12.85h1.55v11.95h10.19v2.43H463.68v17.77c0,5,1.33,8,5.68,8,1.62,0,3-.77,4.53-2.48l1,.89c-2.29,3.85-5.33,5.49-9.92,5.49-5.84,0-10.5-2.77-10.5-9.82Zm25.44,4.25c0-3.43-1.15-4.65-4.84-5.31V412.6l12.72-1.22h1.4v22.74c0,3.69,2.38,5.4,5.73,5.4,3.13,0,5-1.31,7.73-5.55V418.59c0-2.54-1.64-4-4.84-4.58V412.6l12.72-1.22h1.4v24.56c0,4.07.82,5.07,4.93,6.13v1.39l-14.21,1.22v-7.52h-.16c-3.46,5.24-7.3,7.52-12.32,7.52-6.39,0-10.26-3.5-10.26-9.4v-16ZM538,438.13v-11.7c-7.73,3.3-10.1,5.18-10.1,9.34,0,3.36,1.73,5.58,4.26,5.58C534,441.34,535.86,440.27,538,438.13Zm9.35-15.2v14.56c0,2.88.51,4.09,1.91,4.09s2.11-1,2.44-2.88H553c-.33,3.85-3,6-7.55,6-3.77,0-5.93-1.24-7.48-4.31l-.73.64a12.86,12.86,0,0,1-9.77,3.67c-5.11,0-9.28-3.61-9.28-8.1,0-8.34,12.3-9,19.87-11.77,0-5.49-2.15-8.1-7.73-8.1-4.2,0-7.33,1.7-9.28,5.16h-1.22c1.64-6.64,6.64-10.49,13.88-10.49,6.64,0,13.61,3,13.61,11.55Zm12.1-22.26c0-4.34-1.42-5.89-5.86-6.15v-1.37l13.72-.91h1.4v43.7c0,4.07.89,5.07,5.48,6.13v1.37h-20.6v-1.37c4.53-.73,5.84-2.21,5.84-6.13V400.67Zm22.42,37h1c.71,0,1.29-.09,1.29-.89s-.67-.82-1.27-.82h-1v1.7Zm-1.11-2.57H583c1.47,0,2.26.51,2.26,1.77a1.49,1.49,0,0,1-1.51,1.62l1.62,2.61h-1.2l-1.51-2.57h-.82v2.57h-1.11v-6Zm2.11,7.24a4.33,4.33,0,1,0-4.11-4.34A4.12,4.12,0,0,0,582.86,442.38Zm0-9.85a5.38,5.38,0,0,1,5.39,5.53,5.39,5.39,0,0,1-10.79,0,5.38,5.38,0,0,1,5.39-5.53Zm-247.7,26.62V457.2h239v1.95Zm34.72,36.44V472.84h4.28v22.74h-4.28ZM383,472.84h3.93L396.5,489h.07v-16.2h3.91v22.74h-3.93L387,479.39h-.07v16.2H383Zm27.66,15.91a8,8,0,0,0,6.88,3.45c2.11,0,4.86-.71,4.86-2.9,0-1.79-1.67-2.3-4.73-3l-2.53-.58c-3.64-.84-6.84-2.17-6.84-6.35,0-4.8,4.57-7.08,8.84-7.08a11.29,11.29,0,0,1,9.52,4.56l-3.55,2.65a6.45,6.45,0,0,0-6-3.27c-2.49,0-4.33.93-4.33,2.52,0,1.9,2.13,2.35,4.71,2.92l2.78.6c3.4.73,6.62,2.1,6.62,6.42,0,5.55-5.26,7.48-10,7.48a12,12,0,0,1-9.88-4.8l3.64-2.61Zm41.23-.15c0,4.65-3.69,7.57-9.19,7.57s-9.19-2.94-9.19-7.57V472.84h4.28v14.62c0,2.79,1.18,4.54,4.88,4.54s4.93-1.75,4.93-4.54v-14.6h4.28V488.6Zm11.46-5.13H468c2.2,0,3.77-1.28,3.77-3.43s-1.42-3.41-4.4-3.41h-4v6.84ZM459,472.84h9.5c4.84,0,7.7,2.88,7.7,6.86,0,5.11-3.44,6.31-4.53,6.73l5.11,9.16h-5l-4.44-8.36h-4.09v8.36H459V472.84Zm32.5,4.16h-.07l-3.13,10.4h6.33ZM489,472.84h5l7.64,22.74h-4.51l-1.31-4.43h-8.66l-1.31,4.43h-4.48L489,472.84Zm18.45,0h4L521,489h.07v-16.2H525v22.74h-4l-9.57-16.2h-.07v16.2h-3.91V472.84Zm40,7.63a4.91,4.91,0,0,0-5-4.25c-4.55,0-6.44,4-6.44,8s1.89,8,6.44,8c3,0,4.68-1.95,5.53-4.6l3.91,1.79c-1.84,4.56-4.88,6.77-9.44,6.77-7.3,0-10.92-5.53-10.92-11.95s4.11-11.95,10.92-11.95c4.6,0,8.08,2.41,9.17,7.17Zm10.46-7.63H574v4H562.19V482h10.88v3.76H562.19v5.89h12.68v4h-17V472.84Z" transform="translate(-179.75 -271.83)" style="fill:#1a1446"/><path d="M262.25,351.55l4.22-31.35,5.73,32.33c-1.8-.89-7.46-1.42-9.95-1Zm19,4.93,20.14-19.82-12,25.51C288.2,361.26,283.45,357.3,281.21,356.49Zm-35.88,15.93a7.1,7.1,0,0,0-1.15,3,8,8,0,0,0,.11,3l-6.11-4.18a47.71,47.71,0,0,0-.4-5l-.09-.53,7.64,3.67ZM233.7,336.79l19.89,18a14,14,0,0,0-5.59,6.35l-14.3-24.34Zm64.47,38.79c-.13-1.92-2.35-7.12-3.73-8.25L318,356.95l-19.8,18.63Zm-40,3.05v2a7.93,7.93,0,0,1,3.15,2.59l1.78-.44-.75-1.24a7.5,7.5,0,0,1,2.49-.58,5.63,5.63,0,0,1,3.75.88l3.91-.88.51-.84c-2.73-2.12-6.55-4.2-10-3.45a19.77,19.77,0,0,0-4.84,1.92Zm-5.91-8.92a28.1,28.1,0,0,1,4.88-3.61l-1.93-4.43C254,362.92,251.28,366.31,252.3,369.72Zm17.92-3.83,1-5.89a16.07,16.07,0,0,0-6.79-1.48,11.76,11.76,0,0,0-6.35,1.7l1.82,5.2c2.49-.58,8.5-.8,10.3.44ZM282,371.22l2.84-4a80.09,80.09,0,0,0-9.55-6l-2.13,5.53A56.41,56.41,0,0,1,282,371.2Zm11,1.55a4.28,4.28,0,0,1,.11,2c-.67-.93-5.55-5.53-5.55-5.53l-3.06,3.85,5.77,5.07a6.89,6.89,0,0,1-5,1.11c-2.66-.33-8.61-4-8.73-7a35.34,35.34,0,0,0-12.43-2.61,30.22,30.22,0,0,0-7.26,1.11c-1,.35-1.78-.27-2.55-.62l-.36.22,2.22,3.45c.69.35,2-.44,3.75-.75a16,16,0,0,1,10.3,1.68,84.22,84.22,0,0,1,9.41,7.46c1.24,1.22,3.17,1.57,4.09.77s2.18-.77,2.06.24-.6,2.15.44,2.59,1.44-.44,2.13-.91a1.87,1.87,0,0,1,2.15-.11,15,15,0,0,1-3.29,3.94c-1.24,1-3.17,1.92-4.44,1.46l-.78,1.92,5.66,13c1.49,3,1.69,3.78,2.89,5.8a126.45,126.45,0,0,0-24.73,6.84l-2.26-7.74,5.2-7.24a52.34,52.34,0,0,1-7,2.06c-.36,0-3,.55-3.51-2a15.06,15.06,0,0,1-.44-2.39c0-.64.56-1.42,1.11-1.33a2,2,0,0,0,1.6-.22l1.11-1.44c-.91-.11-2-.38-2.42-.38a13,13,0,0,0-2,.62c-.44-.33-1.18-.93-.93-1.73h6l.11-.69A21.14,21.14,0,0,0,258,393.9a2,2,0,0,0-1.71.66v-1.15l3.37-2.83-3.51-1.44-1.93.33,1.24-7.9-.67-1.37-3.42,2-.11-4.47c.11-.84,1.71-2.41,3-3.14l-.22-2.72c-1.38.82-2.89,1.33-3.77,2.54s-1.82,2.83-1.71,4.29a4.17,4.17,0,0,1-1-3.67,6.18,6.18,0,0,1,2.49-4,11.85,11.85,0,0,1-.11-5.77c.75-3.56,4.88-10.4,14.83-10.47,5.91,0,13.1,3.63,18,7.35C289,366.93,292.69,371.31,293,372.77ZM195.29,325.6a19.43,19.43,0,0,0-3.93.22,6,6,0,0,1-.36-3.52l1.49.07-.82-2a16.94,16.94,0,0,1,7.33-3,6.73,6.73,0,0,1,.16,2.26,1.44,1.44,0,0,1-.67,1.06l-2,1a27.36,27.36,0,0,1,3.64,0c.67.09,1,.22,1,.91a3.28,3.28,0,0,1-.56,1.88c-.38.53-1.49.44-2.11.51a3.29,3.29,0,0,1,.4,1.68,1.24,1.24,0,0,1-.82,1.28,13.36,13.36,0,0,0-2.11,1.19,7,7,0,0,0-1.84,3c-1-.6-2-2.72-2.18-3.63a7.15,7.15,0,0,1,3.4-2.92Zm7.5-22.79c-10.43-.18-17.56,4-17.27,10.4-.44-1.28-1-2.08-.89-3.83.16-2,1.44-3.63,2-5.2.47-1.26.22-3.41-.31-3.92.67-.16,2.06.66,3,.44a2.53,2.53,0,0,0,2-1.68,2.68,2.68,0,0,1,2.11-1.86c.93-.07,2.82.89,4.4.53,2-.44,2.89-2.48,4.55-2.48s3,2.17,4.6,2.41,4.09-1.66,5.66-1.06.75,3,2,4,3.77-.15,4.53-.29a9.17,9.17,0,0,0-.44,2.94c.07,1.11,1.89,4.51,2,5.71a8.63,8.63,0,0,1-.44,4.14c-.18-4.51-5.55-10-17.49-10.24Zm-9.5-17.08c.18-3.16,2.73-7.08,8.21-7.37,2.53-.13,5.77.55,7.44.55s5.91-.42,6.88-1.17a3.72,3.72,0,0,1-.31,3.54,17.49,17.49,0,0,0,6.44,1.28c3-.16,6.11-1.77,7.22-3.36a5.64,5.64,0,0,1-1.33,5.4c-3,2.65-9.9,4.07-11.94,5.58a7.2,7.2,0,0,0-2.8,3c-.67-.66-1.07-1.24-2.18-1.11-1.31.13-2,1.42-3.26,1.33-1.67-.11-3-2.88-4.88-2.94-3-.11-4.24,2.35-5.55,2.43-.89,0-2.11-1.28-2.62-2a8.08,8.08,0,0,1-1.33-5.2Zm9.17,26.82c-4.22,0-7.5,1.7-7.95,3.12-.31-2-.09-3.27,1.29-4.45a10.23,10.23,0,0,1,6.37-2c3.62,0,6,1,7.33,2a4.77,4.77,0,0,1,1.73,4.58,11.28,11.28,0,0,0-8.77-3.27Zm86.74,79.87a19.45,19.45,0,0,1,5-4.65l.36,7.72s5.08,9.51,7.3,14.47c-2.09,0-4,0-5.86,0a37.69,37.69,0,0,1-2.89-6l-4-7.35a4,4,0,0,1,.11-4.18Zm-53.77,41c1.33-3.05,3.13-11.73,3.64-14.65.64-3.76,1.24-9.18,5.71-12.85A9,9,0,0,1,252,404.3l6.31,12.83c.58,1.35,2.44,1.84,3.69,1.77-5.93,1.9-20.87,9-26.57,14.51Zm-.56-14.25c-.8,7.24-2.55,13.5-5.22,18-1.71,2.88-6.5,8.74-8.17,11,1.82-3.63,3.22-12.35,3.11-19.12-.09-4.4-1.42-14.12-.27-20.55,1.27-6.9,3.24-10.78,7.86-15a14.69,14.69,0,0,1,14.14-3.05l5.59,10.49a12.26,12.26,0,0,0-9.59,1.95c-5,3.81-6.64,8.92-7.46,16.37Zm-23.16-45c-.36-.66-2.11-37.26-2.18-38.54l2-1.44v-.38c-1.44-.07-3.11-.6-3.62-1.44l-.53-11.2c-2-.15-4-.77-4.75-1.55a3.08,3.08,0,0,1-.62-4.12,13.86,13.86,0,0,0,6.35,1.5c.53,0,1.62,1.19,2.26,1.44s1.93,1,2.51,1.22.82,1.42,1,1.86,18.34,47.5,18.65,48,1.35,8.43,1.42,9a55.14,55.14,0,0,0,3.33,7.52c-2.42-.07-6.37,1.33-9.61,4.49s-6,9.87-6.62,13c-.22-1.64-9.15-28.76-9.55-29.43Zm-3.77-29.29a11.86,11.86,0,0,0-5.33-1.66,10.37,10.37,0,0,0-5.37,1.53,1.91,1.91,0,0,1-.44-2.43c.42-1,1-1.19,1-1.19l-.58-9.85a27.17,27.17,0,0,1,3.55-2.21,1.51,1.51,0,0,0,1.09-1.55,19.22,19.22,0,0,1,4,4,8,8,0,0,1,1.51,4.29,27.12,27.12,0,0,1-.22,5.42c.62.53,1.2,1,1.29,1.81a3,3,0,0,1-.53,1.79Z" transform="translate(-179.75 -271.83)" style="fill:#fff"/></svg>